<svg width="234" height="21" viewBox="0 0 234 21" fill="none" xmlns="http://www.w3.org/2000/svg">
<path d="M19.6016 8.59766C19.6016 9.40885 19.5013 10.1335 19.3008 10.7715C19.1003 11.4095 18.8268 11.9746 18.4805 12.4668C18.1432 12.9499 17.7513 13.3646 17.3047 13.7109C16.8581 14.0573 16.3887 14.3398 15.8965 14.5586C15.4134 14.7773 14.9212 14.9368 14.4199 15.0371C13.9277 15.1374 13.4629 15.1875 13.0254 15.1875H4.98633V11.6328H13.0254C13.4811 11.5964 13.8913 11.5052 14.2559 11.3594C14.6296 11.2044 14.9486 10.9993 15.2129 10.7441C15.4772 10.4889 15.6823 10.1836 15.8281 9.82812C15.974 9.46354 16.0469 9.05339 16.0469 8.59766V6.98438C16.0013 6.53776 15.9056 6.1276 15.7598 5.75391C15.6139 5.38021 15.4134 5.0612 15.1582 4.79688C14.9121 4.53255 14.6113 4.32747 14.2559 4.18164C13.9004 4.02669 13.4902 3.94922 13.0254 3.94922H5.01367C4.53971 3.94922 4.17969 4.07227 3.93359 4.31836C3.6875 4.56445 3.56445 4.91992 3.56445 5.38477V20H0.00976562V5.38477C0.00976562 4.47331 0.173828 3.69857 0.501953 3.06055C0.839193 2.42253 1.25391 1.90755 1.74609 1.51562C2.2474 1.1237 2.78971 0.841146 3.37305 0.667969C3.95638 0.485677 4.49414 0.394531 4.98633 0.394531H13.0254C13.8275 0.394531 14.5475 0.499349 15.1855 0.708984C15.8236 0.909505 16.3841 1.18294 16.8672 1.5293C17.3594 1.86654 17.7741 2.25846 18.1113 2.70508C18.4577 3.15169 18.7402 3.62109 18.959 4.11328C19.1868 4.59635 19.3509 5.08854 19.4512 5.58984C19.5514 6.08203 19.6016 6.54688 19.6016 6.98438V8.59766ZM41.8867 20H38.332V15.1875H25.8359V20H22.2812V10.1973C22.2812 8.76628 22.5273 7.44922 23.0195 6.24609C23.5117 5.04297 24.1953 4.00846 25.0703 3.14258C25.9453 2.27669 26.9798 1.60221 28.1738 1.11914C29.3678 0.636068 30.6712 0.394531 32.084 0.394531H40.0957C40.3418 0.394531 40.5742 0.440104 40.793 0.53125C41.0117 0.622396 41.2031 0.75 41.3672 0.914062C41.5312 1.07812 41.6589 1.26953 41.75 1.48828C41.8411 1.70703 41.8867 1.93945 41.8867 2.18555V20ZM25.8359 11.6328H38.332V3.94922H32.084C31.9746 3.94922 31.7422 3.96745 31.3867 4.00391C31.0404 4.03125 30.6348 4.10872 30.1699 4.23633C29.7142 4.36393 29.2311 4.5599 28.7207 4.82422C28.2103 5.08854 27.7409 5.45312 27.3125 5.91797C26.8841 6.38281 26.5286 6.96615 26.2461 7.66797C25.9727 8.36068 25.8359 9.20378 25.8359 10.1973V11.6328ZM65.6211 6.98438C65.6211 7.79557 65.5208 8.52018 65.3203 9.1582C65.1198 9.79622 64.8464 10.3613 64.5 10.8535C64.1628 11.3366 63.7708 11.7513 63.3242 12.0977C62.8776 12.444 62.4082 12.7311 61.916 12.959C61.4329 13.1777 60.9408 13.3372 60.4395 13.4375C59.9473 13.5378 59.4824 13.5879 59.0449 13.5879L66.4688 20H60.9727L53.5625 13.5879H51.0059V10.0332H59.0449C59.4915 9.99674 59.8971 9.9056 60.2617 9.75977C60.6354 9.60482 60.9544 9.39974 61.2188 9.14453C61.4922 8.88932 61.7018 8.58398 61.8477 8.22852C61.9935 7.86393 62.0664 7.44922 62.0664 6.98438V4.74219C62.0664 4.54167 62.0391 4.39128 61.9844 4.29102C61.9388 4.18164 61.875 4.10417 61.793 4.05859C61.7201 4.00391 61.638 3.97201 61.5469 3.96289C61.4648 3.95378 61.3874 3.94922 61.3145 3.94922H49.584V20H46.0293V2.18555C46.0293 1.93945 46.0749 1.70703 46.166 1.48828C46.2572 1.26953 46.3802 1.07812 46.5352 0.914062C46.6992 0.75 46.8906 0.622396 47.1094 0.53125C47.3281 0.440104 47.5651 0.394531 47.8203 0.394531H61.3145C62.1074 0.394531 62.7773 0.540365 63.3242 0.832031C63.8711 1.11458 64.3132 1.47461 64.6504 1.91211C64.9967 2.34049 65.2428 2.80534 65.3887 3.30664C65.5436 3.80794 65.6211 4.27734 65.6211 4.71484V6.98438ZM89.7383 20H84.6934L76.6953 11.9883H74.1934V8.40625H76.6953L84.6934 0.394531H89.7383L79.6621 10.1973L89.7383 20ZM72.7715 20H69.2168V0.394531H72.7715V20ZM119.748 14.2305C119.748 14.9323 119.657 15.5658 119.475 16.1309C119.301 16.6868 119.069 17.179 118.777 17.6074C118.486 18.0358 118.144 18.4004 117.752 18.7012C117.36 19.002 116.954 19.248 116.535 19.4395C116.116 19.6309 115.688 19.7721 115.25 19.8633C114.822 19.9544 114.416 20 114.033 20H100.32V16.4453H114.033C114.717 16.4453 115.245 16.2448 115.619 15.8438C116.002 15.4427 116.193 14.9049 116.193 14.2305C116.193 13.9023 116.143 13.6016 116.043 13.3281C115.943 13.0547 115.797 12.8177 115.605 12.6172C115.423 12.4167 115.195 12.2617 114.922 12.1523C114.658 12.043 114.361 11.9883 114.033 11.9883H105.857C105.283 11.9883 104.663 11.888 103.998 11.6875C103.333 11.4779 102.713 11.1452 102.139 10.6895C101.574 10.2337 101.1 9.63672 100.717 8.89844C100.343 8.16016 100.156 7.25781 100.156 6.19141C100.156 5.125 100.343 4.22721 100.717 3.49805C101.1 2.75977 101.574 2.16276 102.139 1.70703C102.713 1.24219 103.333 0.909505 103.998 0.708984C104.663 0.499349 105.283 0.394531 105.857 0.394531H117.957V3.94922H105.857C105.183 3.94922 104.654 4.1543 104.271 4.56445C103.898 4.97461 103.711 5.51693 103.711 6.19141C103.711 6.875 103.898 7.41732 104.271 7.81836C104.654 8.21029 105.183 8.40625 105.857 8.40625H114.033H114.061C114.443 8.41536 114.849 8.47005 115.277 8.57031C115.706 8.66146 116.13 8.80729 116.549 9.00781C116.977 9.20833 117.383 9.46354 117.766 9.77344C118.148 10.0742 118.486 10.4388 118.777 10.8672C119.078 11.2956 119.315 11.7878 119.488 12.3438C119.661 12.8997 119.748 13.5286 119.748 14.2305ZM143.277 12.0703C143.277 13.2643 143.072 14.3626 142.662 15.3652C142.252 16.3678 141.682 17.2337 140.953 17.9629C140.224 18.6921 139.358 19.2617 138.355 19.6719C137.362 20.0729 136.277 20.2734 135.102 20.2734H130.289C129.113 20.2734 128.024 20.0729 127.021 19.6719C126.019 19.2617 125.153 18.6921 124.424 17.9629C123.695 17.2337 123.12 16.3678 122.701 15.3652C122.291 14.3626 122.086 13.2643 122.086 12.0703V8.32422C122.086 7.13932 122.291 6.04557 122.701 5.04297C123.12 4.03125 123.695 3.16536 124.424 2.44531C125.153 1.71615 126.019 1.14648 127.021 0.736328C128.024 0.326172 129.113 0.121094 130.289 0.121094H135.102C136.277 0.121094 137.362 0.326172 138.355 0.736328C139.358 1.14648 140.224 1.71615 140.953 2.44531C141.682 3.16536 142.252 4.03125 142.662 5.04297C143.072 6.04557 143.277 7.13932 143.277 8.32422V12.0703ZM139.723 8.32422C139.723 7.6224 139.609 6.98893 139.381 6.42383C139.162 5.84961 138.848 5.36198 138.438 4.96094C138.036 4.55078 137.549 4.23633 136.975 4.01758C136.41 3.78971 135.785 3.67578 135.102 3.67578H130.289C129.596 3.67578 128.963 3.78971 128.389 4.01758C127.824 4.23633 127.336 4.55078 126.926 4.96094C126.516 5.36198 126.197 5.84961 125.969 6.42383C125.75 6.98893 125.641 7.6224 125.641 8.32422V12.0703C125.641 12.7721 125.75 13.4102 125.969 13.9844C126.197 14.5495 126.516 15.0371 126.926 15.4473C127.336 15.8483 127.824 16.1628 128.389 16.3906C128.963 16.6094 129.596 16.7188 130.289 16.7188H135.074C135.767 16.7188 136.396 16.6094 136.961 16.3906C137.535 16.1628 138.027 15.8483 138.438 15.4473C138.848 15.0371 139.162 14.5495 139.381 13.9844C139.609 13.4102 139.723 12.7721 139.723 12.0703V8.32422ZM167.367 12.0703C167.367 13.2643 167.162 14.3626 166.752 15.3652C166.342 16.3678 165.772 17.2337 165.043 17.9629C164.314 18.6921 163.448 19.2617 162.445 19.6719C161.452 20.0729 160.367 20.2734 159.191 20.2734H154.379C153.203 20.2734 152.114 20.0729 151.111 19.6719C150.109 19.2617 149.243 18.6921 148.514 17.9629C147.785 17.2337 147.21 16.3678 146.791 15.3652C146.381 14.3626 146.176 13.2643 146.176 12.0703V8.32422C146.176 7.13932 146.381 6.04557 146.791 5.04297C147.21 4.03125 147.785 3.16536 148.514 2.44531C149.243 1.71615 150.109 1.14648 151.111 0.736328C152.114 0.326172 153.203 0.121094 154.379 0.121094H159.191C160.367 0.121094 161.452 0.326172 162.445 0.736328C163.448 1.14648 164.314 1.71615 165.043 2.44531C165.772 3.16536 166.342 4.03125 166.752 5.04297C167.162 6.04557 167.367 7.13932 167.367 8.32422V12.0703ZM163.812 8.32422C163.812 7.6224 163.699 6.98893 163.471 6.42383C163.252 5.84961 162.938 5.36198 162.527 4.96094C162.126 4.55078 161.639 4.23633 161.064 4.01758C160.499 3.78971 159.875 3.67578 159.191 3.67578H154.379C153.686 3.67578 153.053 3.78971 152.479 4.01758C151.913 4.23633 151.426 4.55078 151.016 4.96094C150.605 5.36198 150.286 5.84961 150.059 6.42383C149.84 6.98893 149.73 7.6224 149.73 8.32422V12.0703C149.73 12.7721 149.84 13.4102 150.059 13.9844C150.286 14.5495 150.605 15.0371 151.016 15.4473C151.426 15.8483 151.913 16.1628 152.479 16.3906C153.053 16.6094 153.686 16.7188 154.379 16.7188H159.164C159.857 16.7188 160.486 16.6094 161.051 16.3906C161.625 16.1628 162.117 15.8483 162.527 15.4473C162.938 15.0371 163.252 14.5495 163.471 13.9844C163.699 13.4102 163.812 12.7721 163.812 12.0703V8.32422ZM174.463 8.40625H186.945V0.394531H190.5V20H186.945V11.9883H174.463V20H170.908V0.394531H174.463V8.40625ZM210.789 11.9883H199.564V8.40625H210.789V11.9883ZM212.389 20H199.564C199.072 20 198.535 19.9134 197.951 19.7402C197.368 19.5671 196.826 19.2845 196.324 18.8926C195.832 18.4915 195.417 17.9766 195.08 17.3477C194.752 16.7096 194.588 15.9303 194.588 15.0098V2.18555C194.588 1.93945 194.633 1.70703 194.725 1.48828C194.816 1.26953 194.939 1.07812 195.094 0.914062C195.258 0.75 195.449 0.622396 195.668 0.53125C195.887 0.440104 196.124 0.394531 196.379 0.394531H212.389V3.94922H198.143V15.0098C198.143 15.4746 198.266 15.8301 198.512 16.0762C198.758 16.3223 199.118 16.4453 199.592 16.4453H212.389V20ZM231.953 11.9883H220.729V8.40625H231.953V11.9883ZM233.553 20H220.729C220.236 20 219.699 19.9134 219.115 19.7402C218.532 19.5671 217.99 19.2845 217.488 18.8926C216.996 18.4915 216.581 17.9766 216.244 17.3477C215.916 16.7096 215.752 15.9303 215.752 15.0098V2.18555C215.752 1.93945 215.798 1.70703 215.889 1.48828C215.98 1.26953 216.103 1.07812 216.258 0.914062C216.422 0.75 216.613 0.622396 216.832 0.53125C217.051 0.440104 217.288 0.394531 217.543 0.394531H233.553V3.94922H219.307V15.0098C219.307 15.4746 219.43 15.8301 219.676 16.0762C219.922 16.3223 220.282 16.4453 220.756 16.4453H233.553V20Z" fill="#2D2D2D"/>
</svg>
